<svg width="80" height="48" viewBox="0 0 80 48" fill="none" xmlns="http://www.w3.org/2000/svg">
<path fill-rule="evenodd" clip-rule="evenodd" d="M19.9428 7.92991C22.126 8.09223 24.1303 8.63397 25.9556 9.55513C27.2753 10.2528 28.4359 11.0922 29.4374 12.0733V9.7494C29.8943 9.98238 30.3427 10.2371 30.7827 10.5136C33.5787 12.2708 35.768 14.6669 37.3506 17.702C38.9333 20.7371 39.7246 24.1449 39.7246 27.9255C39.7246 31.7593 38.9333 35.1938 37.3506 38.2289C35.768 41.264 33.5787 43.6601 30.7827 45.4173C30.3174 45.7097 29.8426 45.9778 29.3583 46.2216V43.7899C28.3606 44.7723 27.2264 45.6076 25.9556 46.2959C24.1258 47.2633 22.1161 47.8313 19.9265 47.9998C17.7573 47.836 15.784 47.2946 14.0066 46.3758C12.5687 45.6324 11.329 44.689 10.2874 43.5456V46.14C9.85727 45.9183 9.43522 45.6775 9.02128 45.4173C6.22527 43.6601 4.03594 41.264 2.4533 38.2289C0.817898 35.1938 0.00019455 31.7593 0.00019455 27.9255C0.00019455 24.1449 0.817898 20.7371 2.4533 17.702C4.03594 14.6669 6.22527 12.2708 9.02128 10.5136C9.43522 10.2534 9.85727 10.0125 10.2874 9.79091V12.4209C11.329 11.2892 12.5687 10.3339 14.0066 9.55513C15.7884 8.63397 17.7671 8.09223 19.9428 7.92991ZM12.424 20.4176C14.2176 18.5007 16.5652 17.5422 19.4667 17.5422C19.6131 17.5422 19.7581 17.5448 19.902 17.5498C20.0458 17.5448 20.1909 17.5422 20.3372 17.5422C22.2364 17.5422 23.9245 17.9682 25.4017 18.8202C26.826 19.7254 27.9603 20.9501 28.8044 22.4943C29.5957 24.0917 29.9913 25.9287 29.9913 28.0054C29.9913 30.0288 29.5957 31.8126 28.8044 33.3568C27.9603 34.9542 26.7997 36.1789 25.3225 37.0308C23.8454 37.936 22.1836 38.3886 20.3372 38.3886C20.1909 38.3886 20.0458 38.386 19.902 38.3806C19.7581 38.386 19.6131 38.3886 19.4667 38.3886C17.5148 38.3886 15.8267 37.936 14.4023 37.0308C12.9251 36.1789 11.7909 34.9542 10.9996 33.3568C10.1555 31.8126 9.73347 30.0288 9.73347 28.0054C9.73347 24.917 10.6303 22.3878 12.424 20.4176Z" fill="#4A85E4"/>
<path d="M39.7246 3.05176e-05V26.7133L28.5521 11.6871L32.2763 3.05176e-05H39.7246Z" fill="#4A85E4"/>
<path fill-rule="evenodd" clip-rule="evenodd" d="M59.5065 7.92991C57.3232 8.09223 55.3189 8.63397 53.4936 9.55513C52.174 10.2528 51.0133 11.0922 50.0118 12.0733V9.7494C49.5549 9.98238 49.1065 10.2371 48.6666 10.5136C45.8705 12.2708 43.6812 14.6669 42.0986 17.702C40.5159 20.7371 39.7246 24.1449 39.7246 27.9255C39.7246 31.7593 40.5159 35.1938 42.0986 38.2289C43.6812 41.264 45.8705 43.6601 48.6666 45.4173C49.1319 45.7097 49.6066 45.9778 50.0909 46.2216V43.7899C51.0886 44.7723 52.2228 45.6076 53.4936 46.2959C55.3234 47.2633 57.3331 47.8313 59.5227 47.9998C61.6919 47.836 63.6652 47.2946 65.4426 46.3758C66.8805 45.6324 68.1203 44.689 69.1618 43.5456V46.14C69.592 45.9183 70.014 45.6775 70.4279 45.4173C73.2239 43.6601 75.4133 41.264 76.9959 38.2289C78.6313 35.1938 79.449 31.7593 79.449 27.9255C79.449 24.1449 78.6313 20.7371 76.9959 17.702C75.4133 14.6669 73.2239 12.2708 70.4279 10.5136C70.014 10.2534 69.592 10.0125 69.1618 9.79091V12.4209C68.1203 11.2892 66.8805 10.3339 65.4426 9.55513C63.6608 8.63397 61.6821 8.09223 59.5065 7.92991ZM67.0252 20.4176C65.2316 18.5007 62.884 17.5422 59.9825 17.5422C59.8362 17.5422 59.6911 17.5448 59.5473 17.5498C59.4034 17.5448 59.2584 17.5422 59.112 17.5422C57.2128 17.5422 55.5247 17.9682 54.0476 18.8202C52.6232 19.7254 51.4889 20.9501 50.6449 22.4943C49.8535 24.0917 49.4579 25.9287 49.4579 28.0054C49.4579 30.0288 49.8535 31.8126 50.6449 33.3568C51.4889 34.9542 52.6496 36.1789 54.1267 37.0308C55.6038 37.936 57.2656 38.3886 59.112 38.3886C59.2584 38.3886 59.4034 38.386 59.5473 38.3806C59.6911 38.386 59.8362 38.3886 59.9825 38.3886C61.9344 38.3886 63.6226 37.936 65.0469 37.0308C66.5241 36.1789 67.6583 34.9542 68.4496 33.3568C69.2937 31.8126 69.7158 30.0288 69.7158 28.0054C69.7158 24.917 68.8189 22.3878 67.0252 20.4176Z" fill="#4A85E4"/>
<path d="M39.7246 3.05176e-05V26.7133L50.8971 11.6871L47.1729 3.05176e-05H39.7246Z" fill="#4A85E4"/>
</svg>
