<svg width="126" height="24" viewBox="0 0 126 24" fill="none" xmlns="http://www.w3.org/2000/svg">
<path d="M13.498 16.0562C13.2997 16.2084 13.0928 16.3515 12.8773 16.4857C11.7077 17.214 10.3946 17.5782 8.93799 17.5782C7.7904 17.5782 6.76419 17.3464 5.85935 16.883C5.25782 16.5602 4.7392 16.1643 4.30348 15.6952V23.9341H0V1.25804H4.30348V2.79519C4.7392 2.32128 5.25782 1.93028 5.85935 1.62218C6.76419 1.15872 7.7904 0.926999 8.93799 0.926999C10.3946 0.926999 11.7077 1.29114 12.8773 2.01942C13.0928 2.15361 13.2997 2.29679 13.498 2.44896C12.6202 3.12266 11.9112 3.97259 11.3711 4.99875C11.1972 5.31851 11.0454 5.64897 10.9157 5.99012C10.7171 5.80073 10.4992 5.63579 10.2621 5.49531C9.64421 5.12013 8.93799 4.93254 8.1435 4.93254C7.32695 4.93254 6.62074 5.12013 6.02487 5.49531C5.40693 5.84841 4.93245 6.356 4.60141 7.01808C4.2483 7.65808 4.07175 8.3974 4.07175 9.23602C4.07175 10.516 4.44693 11.5643 5.19728 12.3809C5.94763 13.1754 6.9297 13.5726 8.1435 13.5726C8.93799 13.5726 9.64421 13.3961 10.2621 13.0429C10.5009 12.8926 10.7202 12.721 10.9199 12.5282C11.0487 12.864 11.1991 13.1901 11.3711 13.5064C11.9112 14.5326 12.6202 15.3825 13.498 16.0562Z" fill="#4A85E4"/>
<path d="M16.0612 12.5292C15.7593 12.2405 15.5091 11.9042 15.3105 11.5202C14.9573 10.8581 14.7808 10.0967 14.7808 9.23602C14.7808 8.3974 14.9573 7.65808 15.3105 7.01808C15.51 6.61903 15.7616 6.2761 16.0654 5.9893C16.4338 6.99046 16.618 8.08374 16.618 9.26913C16.618 10.4424 16.4324 11.5291 16.0612 12.5292Z" fill="#4A85E4"/>
<path fill-rule="evenodd" clip-rule="evenodd" d="M9.72093 17.5345C8.8076 17.4672 7.96914 17.2427 7.20557 16.8609C6.6535 16.5717 6.16798 16.2238 5.74901 15.8172V16.7804C5.55787 16.6838 5.37028 16.5782 5.18624 16.4636C4.01658 15.7354 3.10071 14.7422 2.43863 13.4843C1.77656 12.2264 1.44553 10.8139 1.44553 9.24704C1.44553 7.65806 1.77656 6.2346 2.43863 4.97666C3.10071 3.71872 4.01658 2.72561 5.18624 1.99733C5.38089 1.87613 5.57951 1.76502 5.78211 1.66399V2.67181C6.19946 2.26466 6.67395 1.91845 7.20557 1.63319C7.97104 1.23223 8.81176 0.996833 9.72774 0.926999C10.6352 0.994888 11.4607 1.21925 12.2042 1.60008C12.8058 1.90818 13.3244 2.29919 13.7601 2.7731V1.69781C13.94 1.78967 14.1166 1.88951 14.2898 1.99733C15.4594 2.72561 16.3753 3.71872 17.0374 4.97666C17.7215 6.2346 18.0636 7.65806 18.0636 9.24704C18.0636 10.8139 17.7215 12.2264 17.0374 13.4843C16.3753 14.7422 15.4594 15.7354 14.2898 16.4636C14.1166 16.5715 13.94 16.6713 13.7601 16.7632V15.6731C13.3244 16.1422 12.8058 16.5381 12.2042 16.8609C11.4588 17.2427 10.6311 17.4672 9.72093 17.5345ZM12.8663 12.3588C12.1159 13.1533 11.1339 13.5505 9.92007 13.5505C9.85886 13.5505 9.79817 13.5495 9.738 13.5474C9.67783 13.5495 9.61714 13.5505 9.55593 13.5505C8.76144 13.5505 8.05523 13.374 7.43729 13.0209C6.84143 12.6457 6.36694 12.1381 6.01384 11.4981C5.6828 10.836 5.51728 10.0746 5.51728 9.21393C5.51728 8.37531 5.6828 7.63599 6.01384 6.99599C6.36694 6.33391 6.85246 5.82632 7.4704 5.47322C8.08833 5.09804 8.78351 4.91045 9.55593 4.91045C9.61714 4.91045 9.67783 4.91157 9.738 4.91379C9.79817 4.91157 9.85886 4.91045 9.92007 4.91045C10.7366 4.91045 11.4428 5.09804 12.0387 5.47322C12.6566 5.82632 13.1311 6.33391 13.4622 6.99599C13.8153 7.63599 13.9918 8.37531 13.9918 9.21393C13.9918 10.4939 13.6166 11.5422 12.8663 12.3588Z" fill="#4A85E4"/>
<path d="M21.087 23.934V7.94488H25.4567V23.934H21.087ZM23.2719 5.3628C22.5657 5.3628 21.9808 5.13107 21.5174 4.66762C21.0539 4.1821 20.8222 3.58623 20.8222 2.88002C20.8222 2.19588 21.0539 1.61105 21.5174 1.12553C21.9808 0.640005 22.5657 0.397244 23.2719 0.397244C24.0002 0.397244 24.585 0.640005 25.0264 1.12553C25.4898 1.61105 25.7216 2.19588 25.7216 2.88002C25.7216 3.58623 25.4898 4.1821 25.0264 4.66762C24.585 5.13107 24.0002 5.3628 23.2719 5.3628Z" fill="#4A85E4"/>
<path d="M38.6761 23.934L32.4857 15.6911L38.643 7.94488H43.6417L36.4251 16.6843L36.5906 14.5656L43.9727 23.934H38.6761ZM28.4802 23.934V0H32.8168V23.934H28.4802Z" fill="#4A85E4"/>
<path d="M51.2969 16.0561C51.4952 16.2083 51.7021 16.3514 51.9176 16.4856C53.0873 17.2139 54.4004 17.5781 55.8569 17.5781C57.0045 17.5781 58.0308 17.3463 58.9356 16.8829C59.5371 16.5601 60.0557 16.1642 60.4915 15.6951V23.934H64.7949V1.25794H60.4915V2.79509C60.0557 2.32118 59.5371 1.93018 58.9356 1.62208C58.0308 1.15863 57.0045 0.926904 55.8569 0.926904C54.4004 0.926904 53.0873 1.29105 51.9176 2.01933C51.7021 2.15351 51.4952 2.29669 51.2969 2.44886C52.1748 3.12257 52.8837 3.9725 53.4238 4.99866C53.5977 5.31842 53.7495 5.64887 53.8792 5.99003C54.0779 5.80064 54.2957 5.6357 54.5328 5.49521C55.1507 5.12004 55.8569 4.93245 56.6514 4.93245C57.468 4.93245 58.1742 5.12004 58.7701 5.49521C59.388 5.84832 59.8625 6.35591 60.1935 7.01798C60.5466 7.65799 60.7232 8.3973 60.7232 9.23593C60.7232 10.5159 60.348 11.5642 59.5977 12.3808C58.8473 13.1753 57.8652 13.5725 56.6514 13.5725C55.8569 13.5725 55.1507 13.396 54.5328 13.0429C54.294 12.8925 54.0748 12.7209 53.875 12.5281C53.7462 12.8639 53.5958 13.19 53.4238 13.5063C52.8837 14.5325 52.1748 15.3824 51.2969 16.0561Z" fill="#4A85E4"/>
<path d="M48.7337 12.5291C49.0356 12.2404 49.2859 11.9041 49.4845 11.5201C49.8376 10.858 50.0141 10.0966 50.0141 9.23593C50.0141 8.3973 49.8376 7.65799 49.4845 7.01798C49.285 6.61894 49.0333 6.27601 48.7296 5.9892C48.3611 6.99036 48.1769 8.08364 48.1769 9.26903C48.1769 10.4423 48.3625 11.529 48.7337 12.5291Z" fill="#4A85E4"/>
<path fill-rule="evenodd" clip-rule="evenodd" d="M55.074 17.5344C55.9873 17.4671 56.8258 17.2426 57.5894 16.8608C58.1414 16.5716 58.627 16.2237 59.0459 15.8171V16.7803C59.2371 16.6837 59.4247 16.5781 59.6087 16.4635C60.7784 15.7353 61.6942 14.7422 62.3563 13.4842C63.0184 12.2263 63.3494 10.8138 63.3494 9.24694C63.3494 7.65796 63.0184 6.23451 62.3563 4.97657C61.6942 3.71863 60.7784 2.72552 59.6087 1.99724C59.414 1.87604 59.2154 1.76492 59.0128 1.6639V2.67171C58.5955 2.26456 58.121 1.91835 57.5894 1.63309C56.8239 1.23213 55.9832 0.996738 55.0672 0.926904C54.1597 0.994794 53.3343 1.21916 52.5907 1.59999C51.9892 1.90809 51.4706 2.29909 51.0348 2.773V1.69771C50.8549 1.78957 50.6784 1.88941 50.5052 1.99724C49.3355 2.72552 48.4197 3.71863 47.7576 4.97657C47.0734 6.23451 46.7314 7.65796 46.7314 9.24694C46.7314 10.8138 47.0734 12.2263 47.7576 13.4842C48.4197 14.7422 49.3355 15.7353 50.5052 16.4635C50.6784 16.5714 50.8549 16.6712 51.0348 16.7631V15.673C51.4706 16.1421 51.9892 16.538 52.5907 16.8608C53.3361 17.2426 54.1639 17.4671 55.074 17.5344ZM51.9286 12.3587C52.679 13.1532 53.6611 13.5504 54.8749 13.5504C54.9361 13.5504 54.9968 13.5494 55.0569 13.5473C55.1171 13.5494 55.1778 13.5504 55.239 13.5504C56.0335 13.5504 56.7397 13.3739 57.3576 13.0208C57.9535 12.6456 58.428 12.138 58.7811 11.498C59.1121 10.8359 59.2777 10.0745 59.2777 9.21384C59.2777 8.37521 59.1121 7.63589 58.7811 6.99589C58.428 6.33382 57.9425 5.82623 57.3245 5.47312C56.7066 5.09795 56.0114 4.91036 55.239 4.91036C55.1778 4.91036 55.1171 4.91147 55.0569 4.9137C54.9968 4.91147 54.9361 4.91036 54.8749 4.91036C54.0583 4.91036 53.3521 5.09795 52.7562 5.47312C52.1383 5.82623 51.6638 6.33382 51.3328 6.99589C50.9797 7.63589 50.8031 8.37521 50.8031 9.21384C50.8031 10.4938 51.1783 11.5421 51.9286 12.3587Z" fill="#4A85E4"/>
<path d="M74.8033 23.934C73.3909 23.934 72.1329 23.636 71.0295 23.0402C69.9481 22.4443 69.0984 21.6167 68.4805 20.5574C67.8625 19.4981 67.5536 18.2732 67.5536 16.8829V7.61385H71.9233V16.7836C71.9233 17.4456 72.0336 18.0194 72.2543 18.505C72.475 18.9684 72.806 19.3215 73.2474 19.5643C73.6888 19.807 74.2074 19.9284 74.8033 19.9284C75.7081 19.9284 76.4143 19.6526 76.9219 19.1008C77.4295 18.5491 77.6833 17.7767 77.6833 16.7836V7.61385H82.0199V16.8829C82.0199 18.2953 81.7109 19.5312 81.093 20.5905C80.4971 21.6498 79.6475 22.4774 78.544 23.0733C77.4626 23.6471 76.2157 23.934 74.8033 23.934Z" fill="#4A85E4"/>
<path d="M85.0434 23.934V7.94488H89.413V23.934H85.0434ZM87.2282 5.3628C86.522 5.3628 85.9372 5.13107 85.4737 4.66762C85.0103 4.1821 84.7785 3.58623 84.7785 2.88002C84.7785 2.19588 85.0103 1.61105 85.4737 1.12553C85.9372 0.640005 86.522 0.397244 87.2282 0.397244C87.9565 0.397244 88.5413 0.640005 88.9827 1.12553C89.4461 1.61105 89.6779 2.19588 89.6779 2.88002C89.6779 3.58623 89.4461 4.1821 88.9827 4.66762C88.5413 5.13107 87.9565 5.3628 87.2282 5.3628Z" fill="#4A85E4"/>
<path d="M101.043 23.934C99.4103 23.934 97.9427 23.5698 96.6407 22.8415C95.3386 22.1133 94.3124 21.1201 93.562 19.8622C92.8117 18.6043 92.4365 17.1918 92.4365 15.6249C92.4365 14.036 92.8117 12.6125 93.562 11.3546C94.3124 10.0966 95.3386 9.10351 96.6407 8.37523C97.9648 7.62488 99.4324 7.24971 101.043 7.24971C102.301 7.24971 103.46 7.48143 104.519 7.94488C105.579 8.40834 106.495 9.07041 107.267 9.93111L104.486 12.7449C104.067 12.2815 103.559 11.9284 102.963 11.6856C102.39 11.4428 101.75 11.3215 101.043 11.3215C100.249 11.3215 99.5317 11.509 98.8917 11.8842C98.2738 12.2373 97.7772 12.7339 97.4021 13.3739C97.049 13.9918 96.8724 14.7311 96.8724 15.5918C96.8724 16.4305 97.049 17.1808 97.4021 17.8429C97.7772 18.4829 98.2738 18.9905 98.8917 19.3657C99.5317 19.7188 100.249 19.8953 101.043 19.8953C101.772 19.8953 102.423 19.7739 102.997 19.5312C103.592 19.2663 104.1 18.8912 104.519 18.4056L107.333 21.2195C106.517 22.1022 105.579 22.7753 104.519 23.2388C103.46 23.7022 102.301 23.934 101.043 23.934Z" fill="#4A85E4"/>
<path d="M120.288 23.934L114.097 15.6911L120.255 7.94488H125.253L118.037 16.6843L118.202 14.5656L125.584 23.934H120.288ZM110.092 23.934V0H114.428V23.934H110.092Z" fill="#4A85E4"/>
</svg>
